<svg width="17" height="21" viewBox="0 0 17 21" fill="none" xmlns="http://www.w3.org/2000/svg">
<path d="M14.96 9.1875C15.2433 9.1875 15.509 9.23877 15.7569 9.34131C16.0048 9.44385 16.2208 9.58398 16.405 9.76172C16.5892 9.93945 16.7344 10.1479 16.8406 10.3872C16.9469 10.6265 17 10.8828 17 11.1562V15.0938C17 15.9072 16.8406 16.6729 16.5219 17.3906C16.2031 18.1084 15.764 18.7339 15.2044 19.2671C14.6448 19.8003 13.9967 20.2207 13.26 20.5283C12.5233 20.8359 11.73 20.9932 10.88 21C9.86 21 8.91083 20.812 8.0325 20.436C7.15417 20.0601 6.35375 19.5269 5.63125 18.8364L0.61625 13.9966C0.417917 13.8052 0.265625 13.583 0.159375 13.3301C0.053125 13.0771 0 12.8174 0 12.5508C0 12.2637 0.0566667 11.9971 0.17 11.751C0.283333 11.5049 0.435625 11.2861 0.626875 11.0947C0.818125 10.9033 1.04125 10.7598 1.29625 10.6641C1.55125 10.5684 1.8275 10.5137 2.125 10.5C2.70583 10.5 3.20521 10.7017 3.62313 11.105L4.76 12.1919V8.74658C4.34208 8.55518 3.96667 8.31592 3.63375 8.02881C3.30083 7.7417 3.0175 7.41699 2.78375 7.05469C2.55 6.69238 2.36583 6.30273 2.23125 5.88574C2.09667 5.46875 2.03292 5.03809 2.04 4.59375C2.04 3.95801 2.16396 3.36328 2.41188 2.80957C2.65979 2.25586 2.99979 1.76709 3.43187 1.34326C3.86396 0.919434 4.36688 0.591309 4.94063 0.358887C5.51438 0.126465 6.13417 0.00683594 6.8 0C7.45875 0 8.075 0.119629 8.64875 0.358887C9.2225 0.598145 9.72896 0.92627 10.1681 1.34326C10.6073 1.76025 10.9473 2.24561 11.1881 2.79932C11.429 3.35303 11.5529 3.95117 11.56 4.59375C11.56 5.22949 11.429 5.83789 11.1669 6.41895C10.9048 7 10.5329 7.50928 10.0513 7.94678C10.2992 8.0083 10.5223 8.11084 10.7206 8.25439C10.919 8.39795 11.0925 8.57568 11.2413 8.7876C11.56 8.6167 11.8929 8.53125 12.24 8.53125C12.5942 8.53125 12.9235 8.60986 13.2281 8.76709C13.5327 8.92432 13.7771 9.1499 13.9613 9.44385C14.28 9.27295 14.6129 9.1875 14.96 9.1875ZM3.4 4.59375C3.4 5.10645 3.52042 5.59521 3.76125 6.06006C4.00208 6.5249 4.335 6.91113 4.76 7.21875V4.59375C4.76 4.32031 4.81313 4.06396 4.91937 3.82471C5.02563 3.58545 5.17083 3.37695 5.355 3.19922C5.53917 3.02148 5.75521 2.88135 6.00313 2.77881C6.25104 2.67627 6.51667 2.625 6.8 2.625C7.08333 2.625 7.34896 2.67627 7.59688 2.77881C7.84479 2.88135 8.06083 3.02148 8.245 3.19922C8.42917 3.37695 8.57438 3.58545 8.68062 3.82471C8.78687 4.06396 8.84 4.32031 8.84 4.59375V7.21875C9.265 6.91113 9.59792 6.5249 9.83875 6.06006C10.0796 5.59521 10.2 5.10645 10.2 4.59375C10.2 4.14258 10.1115 3.71875 9.93437 3.32227C9.75729 2.92578 9.51292 2.58057 9.20125 2.28662C8.88958 1.99268 8.52833 1.75684 8.1175 1.5791C7.70667 1.40137 7.2675 1.3125 6.8 1.3125C6.3325 1.3125 5.89333 1.39795 5.4825 1.56885C5.07167 1.73975 4.71042 1.97559 4.39875 2.27637C4.08708 2.57715 3.84271 2.92578 3.66563 3.32227C3.48854 3.71875 3.4 4.14258 3.4 4.59375ZM15.64 11.1562C15.64 10.9785 15.5727 10.8247 15.4381 10.6948C15.3035 10.5649 15.1442 10.5 14.96 10.5C14.7192 10.5 14.5527 10.5649 14.4606 10.6948C14.3685 10.8247 14.3119 10.9854 14.2906 11.1768C14.2694 11.3682 14.2658 11.5801 14.28 11.8125C14.2942 12.0449 14.2942 12.2534 14.28 12.438C14.2658 12.6226 14.2092 12.7866 14.11 12.9302C14.0108 13.0737 13.8408 13.1387 13.6 13.125C13.3379 13.125 13.1608 13.0464 13.0688 12.8892C12.9767 12.7319 12.92 12.5269 12.8988 12.2739C12.8775 12.021 12.8846 11.7578 12.92 11.4844C12.9554 11.2109 12.9625 10.9478 12.9412 10.6948C12.92 10.4419 12.8669 10.2402 12.7819 10.0898C12.6969 9.93945 12.5162 9.85742 12.24 9.84375C11.9992 9.84375 11.8327 9.90869 11.7406 10.0386C11.6485 10.1685 11.5919 10.3291 11.5706 10.5205C11.5494 10.7119 11.5458 10.9238 11.56 11.1562C11.5742 11.3887 11.5742 11.5972 11.56 11.7817C11.5458 11.9663 11.4892 12.1304 11.39 12.2739C11.2908 12.4175 11.1208 12.4824 10.88 12.4688C10.6179 12.4688 10.4408 12.3901 10.3488 12.2329C10.2567 12.0757 10.2 11.8706 10.1788 11.6177C10.1575 11.3647 10.1646 11.1016 10.2 10.8281C10.2354 10.5547 10.2425 10.2915 10.2213 10.0386C10.2 9.78564 10.1469 9.58398 10.0619 9.43359C9.97688 9.2832 9.79625 9.20117 9.52 9.1875C9.27917 9.1875 9.11271 9.25244 9.02063 9.38232C8.92854 9.51221 8.87187 9.67285 8.85063 9.86426C8.82938 10.0557 8.82583 10.2676 8.84 10.5C8.85417 10.7324 8.85417 10.9409 8.84 11.1255C8.82583 11.3101 8.76917 11.4741 8.67 11.6177C8.57083 11.7612 8.40083 11.8262 8.16 11.8125C7.97583 11.8125 7.81646 11.7476 7.68188 11.6177C7.54729 11.4878 7.48 11.334 7.48 11.1562V4.59375C7.48 4.41602 7.41271 4.26221 7.27813 4.13232C7.14354 4.00244 6.98417 3.9375 6.8 3.9375C6.61583 3.9375 6.45646 4.00244 6.32188 4.13232C6.18729 4.26221 6.12 4.41602 6.12 4.59375V12.6636C6.12 12.8208 6.09167 12.9644 6.035 13.0942C5.97833 13.2241 5.89687 13.3438 5.79063 13.4531C5.68438 13.5625 5.56042 13.6411 5.41875 13.689C5.27708 13.7368 5.12833 13.7676 4.9725 13.7812C4.81667 13.7812 4.66792 13.7539 4.52625 13.6992C4.38458 13.6445 4.25354 13.5625 4.13312 13.4531L2.65625 12.0278C2.5075 11.8843 2.33042 11.8125 2.125 11.8125C1.91958 11.8125 1.7425 11.8843 1.59375 12.0278C1.445 12.1714 1.36708 12.3457 1.36 12.5508C1.36 12.749 1.43438 12.9199 1.58312 13.0635L6.59812 17.9136C7.19313 18.4878 7.84479 18.9253 8.55313 19.2261C9.26146 19.5269 10.0371 19.6807 10.88 19.6875C11.5387 19.6875 12.155 19.5679 12.7288 19.3286C13.3025 19.0894 13.8054 18.7612 14.2375 18.3442C14.6696 17.9272 15.0096 17.4419 15.2575 16.8882C15.5054 16.3345 15.6329 15.7363 15.64 15.0938V11.1562Z" fill="#3C2C08"/>
</svg>
