<svg width="40" height="25" viewBox="0 0 40 25" fill="none" xmlns="http://www.w3.org/2000/svg">
<path d="M0.693025 22.0388C0.438262 21.9323 0.14537 22.0525 0.0388321 22.3072C-0.0677053 22.562 0.0524556 22.8549 0.307219 22.9614L0.500122 22.5001L0.693025 22.0388ZM37.4333 0.250408C37.2954 0.0111705 36.9896 -0.0709689 36.7504 0.0669445L32.8518 2.31437C32.6126 2.45229 32.5304 2.75803 32.6683 2.99726C32.8063 3.2365 33.112 3.31864 33.3512 3.18073L36.8167 1.18301L38.8144 4.64843C38.9523 4.88767 39.258 4.96981 39.4973 4.8319C39.7365 4.69398 39.8186 4.38824 39.6807 4.14901L37.4333 0.250408ZM0.500122 22.5001L0.307219 22.9614C4.97695 24.9142 12.4359 26.14 19.6617 23.4563C26.9193 20.7609 33.849 14.1564 37.483 0.62985L37.0001 0.500122L36.5172 0.370394C32.9513 13.6438 26.2142 19.956 19.3135 22.5189C12.381 25.0936 5.18996 23.9194 0.693025 22.0388L0.500122 22.5001Z" fill="white"/>
</svg>
