<svg width="37" height="74" viewBox="0 0 37 74" fill="none" xmlns="http://www.w3.org/2000/svg">
<path d="M0.333048 73.0289C0.0727782 73.1211 -0.0634106 73.4069 0.0288618 73.6672C0.121134 73.9275 0.406926 74.0637 0.667196 73.9714L0.500122 73.5001L0.333048 73.0289ZM30.5874 0.0338192C30.3299 -0.0658397 30.0403 0.0621417 29.9407 0.319674L28.3167 4.5164C28.217 4.77393 28.345 5.06349 28.6025 5.16315C28.86 5.26281 29.1496 5.13483 29.2493 4.8773L30.6928 1.14687L34.4233 2.59046C34.6808 2.69012 34.9704 2.56214 35.07 2.30461C35.1697 2.04707 35.0417 1.75751 34.7842 1.65786L30.5874 0.0338192ZM0.500122 73.5001L0.667196 73.9714C20.9853 66.7681 31.3361 54.6092 35.187 41.0732C39.0295 27.5666 36.3774 12.7714 30.8643 0.297992L30.407 0.500122L29.9497 0.702252C35.4025 13.0393 37.984 27.5872 34.2252 40.7996C30.4747 53.9826 20.3892 65.9184 0.333048 73.0289L0.500122 73.5001Z" fill="#FFFFA0"/>
</svg>
