<svg width="34" height="34" viewBox="0 0 34 34" fill="none" xmlns="http://www.w3.org/2000/svg">
<path d="M7.49784 3.13476C7.70954 2.51222 8.0516 1.94201 8.5012 1.46218C8.9508 0.982357 9.49759 0.603961 10.1051 0.352257C10.7125 0.100554 11.3667 -0.0186654 12.0239 0.00255844C12.6812 0.0237823 13.3263 0.184961 13.9163 0.475334L16.0731 1.53776C16.3618 1.67985 16.6793 1.75375 17.0011 1.75375C17.3229 1.75375 17.6403 1.67985 17.929 1.53776L20.0859 0.475334C20.6306 0.207179 21.2228 0.0489485 21.8287 0.00967976C22.4346 -0.029589 23.0423 0.050873 23.6171 0.24647C24.1919 0.442068 24.7225 0.748969 25.1787 1.14965C25.6348 1.55033 26.0076 2.03694 26.2757 2.58169L26.3984 2.85402L26.5043 3.13476L27.2776 5.40922C27.4877 6.02785 27.9736 6.51368 28.5922 6.72381L30.8667 7.49709C31.4892 7.70896 32.0592 8.05114 32.5389 8.50081C33.0185 8.95048 33.3967 9.49728 33.6483 10.1047C33.8998 10.7122 34.0189 11.3663 33.9976 12.0234C33.9762 12.6805 33.815 13.3255 33.5246 13.9154L32.4655 16.0705C32.3231 16.3594 32.2491 16.6772 32.2491 16.9992C32.2491 17.3213 32.3231 17.6391 32.4655 17.928L33.5246 20.0848C33.815 20.6747 33.9762 21.3197 33.9976 21.9768C34.0189 22.6339 33.8998 23.288 33.6483 23.8954C33.3967 24.5029 33.0185 25.0497 32.5389 25.4994C32.0592 25.949 31.4892 26.2912 30.8667 26.5031L28.5905 27.2764C28.2859 27.3804 28.0092 27.553 27.7818 27.781C27.5545 28.0089 27.3826 28.286 27.2793 28.5909L26.506 30.8654C26.2942 31.4882 25.9519 32.0587 25.502 32.5387C25.0521 33.0186 24.5049 33.397 23.897 33.6486C23.2892 33.9002 22.6346 34.0191 21.9771 33.9975C21.3195 33.9759 20.6742 33.8141 20.0842 33.5232L17.929 32.4607C17.6403 32.3186 17.3229 32.2447 17.0011 32.2447C16.6793 32.2447 16.3618 32.3186 16.0731 32.4607L13.9163 33.5232C13.3264 33.8136 12.6814 33.9748 12.0242 33.9962C11.3671 34.0175 10.713 33.8984 10.1055 33.6469C9.49808 33.3953 8.95126 33.0171 8.50159 32.5375C8.05191 32.0578 7.70971 31.4878 7.49784 30.8654L6.72454 28.5893C6.6205 28.2846 6.44785 28.0079 6.21991 27.7806C5.99198 27.5532 5.71485 27.3813 5.40992 27.278L3.1354 26.5048C2.51262 26.2931 1.94219 25.951 1.46219 25.5013C0.982189 25.0516 0.603682 24.5046 0.351953 23.897C0.100223 23.2893 -0.0189334 22.6349 0.00244196 21.9775C0.0238173 21.3201 0.185233 20.6749 0.475906 20.0848L1.53836 17.928C1.68072 17.6391 1.75477 17.3213 1.75477 16.9992C1.75477 16.6772 1.68072 16.3594 1.53836 16.0705L0.475906 13.9154C0.185525 13.3254 0.0243425 12.6803 0.00311812 12.0231C-0.0181063 11.3659 0.101116 10.7117 0.352826 10.1043C0.604536 9.49679 0.982941 8.95002 1.46278 8.50043C1.94262 8.05084 2.51285 7.70878 3.1354 7.49709L5.40992 6.72381C5.71521 6.62021 5.99256 6.44776 6.22052 6.21981C6.44848 5.99185 6.62094 5.7145 6.72454 5.40922L7.49784 3.13476ZM24.1962 11.9065C23.9598 11.6704 23.6393 11.5378 23.3052 11.5378C22.9711 11.5378 22.6506 11.6704 22.4142 11.9065L14.8997 19.4208L11.5879 16.1091C11.3489 15.8864 11.0328 15.7652 10.7062 15.7709C10.3795 15.7767 10.0679 15.909 9.83688 16.14C9.60588 16.371 9.47355 16.6827 9.46779 17.0093C9.46203 17.3359 9.58327 17.652 9.80599 17.891L14.0087 22.0937C14.2451 22.3298 14.5656 22.4624 14.8997 22.4624C15.2338 22.4624 15.5543 22.3298 15.7907 22.0937L24.1962 13.6884C24.4323 13.452 24.5649 13.1316 24.5649 12.7975C24.5649 12.4633 24.4323 12.1429 24.1962 11.9065Z" fill="black"/>
<path d="M7.49784 3.13476C7.70954 2.51222 8.0516 1.94201 8.5012 1.46218C8.9508 0.982357 9.49759 0.603961 10.1051 0.352257C10.7125 0.100554 11.3667 -0.0186654 12.0239 0.00255844C12.6812 0.0237823 13.3263 0.184961 13.9163 0.475334L16.0731 1.53776C16.3618 1.67985 16.6793 1.75375 17.0011 1.75375C17.3229 1.75375 17.6403 1.67985 17.929 1.53776L20.0859 0.475334C20.6306 0.207179 21.2228 0.0489485 21.8287 0.00967976C22.4346 -0.029589 23.0423 0.050873 23.6171 0.24647C24.1919 0.442068 24.7225 0.748969 25.1787 1.14965C25.6348 1.55033 26.0076 2.03694 26.2757 2.58169L26.3984 2.85402L26.5043 3.13476L27.2776 5.40922C27.4877 6.02785 27.9736 6.51368 28.5922 6.72381L30.8667 7.49709C31.4892 7.70896 32.0592 8.05114 32.5389 8.50081C33.0185 8.95048 33.3967 9.49728 33.6483 10.1047C33.8998 10.7122 34.0189 11.3663 33.9976 12.0234C33.9762 12.6805 33.815 13.3255 33.5246 13.9154L32.4655 16.0705C32.3231 16.3594 32.2491 16.6772 32.2491 16.9992C32.2491 17.3213 32.3231 17.6391 32.4655 17.928L33.5246 20.0848C33.815 20.6747 33.9762 21.3197 33.9976 21.9768C34.0189 22.6339 33.8998 23.288 33.6483 23.8954C33.3967 24.5029 33.0185 25.0497 32.5389 25.4994C32.0592 25.949 31.4892 26.2912 30.8667 26.5031L28.5905 27.2764C28.2859 27.3804 28.0092 27.553 27.7818 27.781C27.5545 28.0089 27.3826 28.286 27.2793 28.5909L26.506 30.8654C26.2942 31.4882 25.9519 32.0587 25.502 32.5387C25.0521 33.0186 24.5049 33.397 23.897 33.6486C23.2892 33.9002 22.6346 34.0191 21.9771 33.9975C21.3195 33.9759 20.6742 33.8141 20.0842 33.5232L17.929 32.4607C17.6403 32.3186 17.3229 32.2447 17.0011 32.2447C16.6793 32.2447 16.3618 32.3186 16.0731 32.4607L13.9163 33.5232C13.3264 33.8136 12.6814 33.9748 12.0242 33.9962C11.3671 34.0175 10.713 33.8984 10.1055 33.6469C9.49808 33.3953 8.95126 33.0171 8.50159 32.5375C8.05191 32.0578 7.70971 31.4878 7.49784 30.8654L6.72454 28.5893C6.6205 28.2846 6.44785 28.0079 6.21991 27.7806C5.99198 27.5532 5.71485 27.3813 5.40992 27.278L3.1354 26.5048C2.51262 26.2931 1.94219 25.951 1.46219 25.5013C0.982189 25.0516 0.603682 24.5046 0.351953 23.897C0.100223 23.2893 -0.0189334 22.6349 0.00244196 21.9775C0.0238173 21.3201 0.185233 20.6749 0.475906 20.0848L1.53836 17.928C1.68072 17.6391 1.75477 17.3213 1.75477 16.9992C1.75477 16.6772 1.68072 16.3594 1.53836 16.0705L0.475906 13.9154C0.185525 13.3254 0.0243425 12.6803 0.00311812 12.0231C-0.0181063 11.3659 0.101116 10.7117 0.352826 10.1043C0.604536 9.49679 0.982941 8.95002 1.46278 8.50043C1.94262 8.05084 2.51285 7.70878 3.1354 7.49709L5.40992 6.72381C5.71521 6.62021 5.99256 6.44776 6.22052 6.21981C6.44848 5.99185 6.62094 5.7145 6.72454 5.40922L7.49784 3.13476ZM24.1962 11.9065C23.9598 11.6704 23.6393 11.5378 23.3052 11.5378C22.9711 11.5378 22.6506 11.6704 22.4142 11.9065L14.8997 19.4208L11.5879 16.1091C11.3489 15.8864 11.0328 15.7652 10.7062 15.7709C10.3795 15.7767 10.0679 15.909 9.83688 16.14C9.60588 16.371 9.47355 16.6827 9.46779 17.0093C9.46203 17.3359 9.58327 17.652 9.80599 17.891L14.0087 22.0937C14.2451 22.3298 14.5656 22.4624 14.8997 22.4624C15.2338 22.4624 15.5543 22.3298 15.7907 22.0937L24.1962 13.6884C24.4323 13.452 24.5649 13.1316 24.5649 12.7975C24.5649 12.4633 24.4323 12.1429 24.1962 11.9065Z" fill="url(#paint0_linear_1_198)"/>
<defs>
<linearGradient id="paint0_linear_1_198" x1="0" y1="17" x2="34" y2="17" gradientUnits="userSpaceOnUse">
<stop stop-color="#FFD287"/>
<stop offset="0.5" stop-color="#FFE7AB"/>
<stop offset="1" stop-color="#FFD287"/>
</linearGradient>
</defs>
</svg>
