<svg width="25" height="35" viewBox="0 0 25 35" fill="none" xmlns="http://www.w3.org/2000/svg">
<path d="M7.28699 34.314C5.00499 34.314 3.24799 33.712 2.01599 32.508C0.783993 31.304 0.139993 29.589 0.0839932 27.363C0.0559932 25.165 0.0349932 22.911 0.0209932 20.601C0.00699329 18.291 0.00699329 15.981 0.0209932 13.671C0.0349932 11.361 0.0559932 9.11403 0.0839932 6.93003C0.139993 4.69003 0.783993 2.97503 2.01599 1.78503C3.24799 0.595029 5.00499 2.90871e-05 7.28699 2.90871e-05C9.54099 2.90871e-05 11.284 0.595029 12.516 1.78503C13.748 2.97503 14.392 4.69003 14.448 6.93003C14.49 8.58203 14.525 10.269 14.553 11.991C14.581 13.713 14.595 15.442 14.595 17.178C14.595 18.914 14.581 20.636 14.553 22.344C14.525 24.052 14.49 25.725 14.448 27.363C14.392 29.589 13.748 31.304 12.516 32.508C11.284 33.712 9.54099 34.314 7.28699 34.314ZM7.28699 30.555C8.96699 30.555 9.84199 29.757 9.91199 28.161C9.99599 25.627 10.045 23.086 10.059 20.538C10.087 17.99 10.087 15.498 10.059 13.062C10.045 10.626 9.99599 8.31603 9.91199 6.13203C9.86999 4.53603 8.99499 3.73803 7.28699 3.73803C5.56499 3.73803 4.68299 4.53603 4.64099 6.13203C4.58499 8.00803 4.54299 9.89803 4.51499 11.802C4.50099 13.692 4.49399 15.575 4.49399 17.451C4.49399 19.327 4.50099 21.168 4.51499 22.974C4.54299 24.766 4.58499 26.495 4.64099 28.161C4.68299 29.757 5.56499 30.555 7.28699 30.555ZM19.969 33.957V4.66203H18.184L18.058 2.98203L20.914 0.357031H24.505V33.957H19.969Z" fill="url(#paint0_linear_1_14)"/>
<defs>
<linearGradient id="paint0_linear_1_14" x1="-2.2406" y1="8.5878" x2="66.7665" y2="51.1504" gradientUnits="userSpaceOnUse">
<stop offset="0.0856443" stop-color="white"/>
<stop offset="1" stop-color="#B7B7B7"/>
</linearGradient>
</defs>
</svg>
