<svg width="33" height="35" viewBox="0 0 33 35" fill="none" xmlns="http://www.w3.org/2000/svg">
<path d="M7.28699 34.314C5.00499 34.314 3.24799 33.712 2.01599 32.508C0.783993 31.304 0.139993 29.589 0.0839932 27.363C0.0559932 25.165 0.0349932 22.911 0.0209932 20.601C0.00699329 18.291 0.00699329 15.981 0.0209932 13.671C0.0349932 11.361 0.0559932 9.11403 0.0839932 6.93003C0.139993 4.69003 0.783993 2.97503 2.01599 1.78503C3.24799 0.595029 5.00499 2.90871e-05 7.28699 2.90871e-05C9.54099 2.90871e-05 11.284 0.595029 12.516 1.78503C13.748 2.97503 14.392 4.69003 14.448 6.93003C14.49 8.58203 14.525 10.269 14.553 11.991C14.581 13.713 14.595 15.442 14.595 17.178C14.595 18.914 14.581 20.636 14.553 22.344C14.525 24.052 14.49 25.725 14.448 27.363C14.392 29.589 13.748 31.304 12.516 32.508C11.284 33.712 9.54099 34.314 7.28699 34.314ZM7.28699 30.555C8.96699 30.555 9.84199 29.757 9.91199 28.161C9.99599 25.627 10.045 23.086 10.059 20.538C10.087 17.99 10.087 15.498 10.059 13.062C10.045 10.626 9.99599 8.31603 9.91199 6.13203C9.86999 4.53603 8.99499 3.73803 7.28699 3.73803C5.56499 3.73803 4.68299 4.53603 4.64099 6.13203C4.58499 8.00803 4.54299 9.89803 4.51499 11.802C4.50099 13.692 4.49399 15.575 4.49399 17.451C4.49399 19.327 4.50099 21.168 4.51499 22.974C4.54299 24.766 4.58499 26.495 4.64099 28.161C4.68299 29.757 5.56499 30.555 7.28699 30.555ZM18.583 33.957C18.569 33.397 18.555 32.907 18.541 32.487C18.541 32.067 18.534 31.682 18.52 31.332C18.52 30.982 18.52 30.625 18.52 30.261C18.52 29.897 18.52 29.484 18.52 29.022C18.52 28.56 18.527 28.014 18.541 27.384C18.583 25.69 18.814 24.227 19.234 22.995C19.668 21.763 20.277 20.699 21.061 19.803C21.845 18.907 22.797 18.116 23.917 17.43L26.248 15.96C27.116 15.344 27.676 14.651 27.928 13.881C28.194 13.097 28.341 12.341 28.369 11.613C28.425 10.703 28.453 9.79303 28.453 8.88303C28.453 7.97303 28.425 7.06303 28.369 6.15303C28.327 5.34103 28.089 4.73903 27.655 4.34703C27.221 3.94103 26.542 3.73803 25.618 3.73803C24.764 3.73803 24.127 3.94103 23.707 4.34703C23.301 4.73903 23.084 5.34103 23.056 6.15303C23.028 7.20303 23.014 8.26003 23.014 9.32403C23.014 10.374 23.035 11.424 23.077 12.474H18.583C18.569 11.844 18.548 11.2 18.52 10.542C18.506 9.88403 18.499 9.24703 18.499 8.63103C18.499 8.01503 18.506 7.45503 18.52 6.95103C18.618 4.47303 19.213 2.69503 20.305 1.61703C21.411 0.539029 23.189 2.90871e-05 25.639 2.90871e-05C27.361 2.90871e-05 28.74 0.238029 29.776 0.71403C30.826 1.17603 31.589 1.91803 32.065 2.94003C32.555 3.94803 32.835 5.27803 32.905 6.93003C32.919 7.28003 32.933 7.65803 32.947 8.06403C32.961 8.45603 32.968 8.86203 32.968 9.28203C32.968 9.68803 32.961 10.094 32.947 10.5C32.947 10.892 32.94 11.263 32.926 11.613C32.87 12.957 32.646 14.133 32.254 15.141C31.876 16.135 31.323 17.024 30.595 17.808C29.881 18.592 28.992 19.327 27.928 20.013L25.324 21.63C24.792 21.994 24.365 22.491 24.043 23.121C23.721 23.751 23.483 24.444 23.329 25.2C23.189 25.942 23.119 26.67 23.119 27.384V29.925H32.611V33.957H18.583Z" fill="url(#paint0_linear_1_26)"/>
<defs>
<linearGradient id="paint0_linear_1_26" x1="-2.3031" y1="8.5878" x2="72.7542" y2="67.6528" gradientUnits="userSpaceOnUse">
<stop offset="0.0856443" stop-color="white"/>
<stop offset="1" stop-color="#B7B7B7"/>
</linearGradient>
</defs>
</svg>
