<svg width="33" height="35" viewBox="0 0 33 35" fill="none" xmlns="http://www.w3.org/2000/svg">
<path d="M7.28699 34.314C5.00499 34.314 3.24799 33.712 2.01599 32.508C0.783993 31.304 0.139993 29.589 0.0839932 27.363C0.0559932 25.165 0.0349932 22.911 0.0209932 20.601C0.00699329 18.291 0.00699329 15.981 0.0209932 13.671C0.0349932 11.361 0.0559932 9.11403 0.0839932 6.93003C0.139993 4.69003 0.783993 2.97503 2.01599 1.78503C3.24799 0.595029 5.00499 2.90871e-05 7.28699 2.90871e-05C9.54099 2.90871e-05 11.284 0.595029 12.516 1.78503C13.748 2.97503 14.392 4.69003 14.448 6.93003C14.49 8.58203 14.525 10.269 14.553 11.991C14.581 13.713 14.595 15.442 14.595 17.178C14.595 18.914 14.581 20.636 14.553 22.344C14.525 24.052 14.49 25.725 14.448 27.363C14.392 29.589 13.748 31.304 12.516 32.508C11.284 33.712 9.54099 34.314 7.28699 34.314ZM7.28699 30.555C8.96699 30.555 9.84199 29.757 9.91199 28.161C9.99599 25.627 10.045 23.086 10.059 20.538C10.087 17.99 10.087 15.498 10.059 13.062C10.045 10.626 9.99599 8.31603 9.91199 6.13203C9.86999 4.53603 8.99499 3.73803 7.28699 3.73803C5.56499 3.73803 4.68299 4.53603 4.64099 6.13203C4.58499 8.00803 4.54299 9.89803 4.51499 11.802C4.50099 13.692 4.49399 15.575 4.49399 17.451C4.49399 19.327 4.50099 21.168 4.51499 22.974C4.54299 24.766 4.58499 26.495 4.64099 28.161C4.68299 29.757 5.56499 30.555 7.28699 30.555ZM25.513 34.314C22.923 34.314 21.047 33.775 19.885 32.697C18.723 31.605 18.107 29.813 18.037 27.321C18.023 26.775 18.009 26.271 17.995 25.809C17.995 25.347 17.995 24.864 17.995 24.36C18.009 23.856 18.023 23.261 18.037 22.575H22.573V27.888C22.573 28.784 22.811 29.456 23.287 29.904C23.763 30.338 24.47 30.555 25.408 30.555C26.332 30.555 27.018 30.338 27.466 29.904C27.928 29.456 28.166 28.784 28.18 27.888C28.222 26.88 28.243 25.802 28.243 24.654C28.243 23.506 28.222 22.456 28.18 21.504C28.138 20.538 27.907 19.768 27.487 19.194C27.067 18.62 26.248 18.347 25.03 18.375L21.88 18.396L21.733 14.574L27.445 4.38903H18.289V0.357031H32.653L32.59 4.20003L26.689 14.427C28.747 14.581 30.238 15.211 31.162 16.317C32.1 17.409 32.618 19.124 32.716 21.462C32.744 22.064 32.758 22.631 32.758 23.163C32.772 23.695 32.779 24.199 32.779 24.675C32.779 25.151 32.772 25.613 32.758 26.061C32.758 26.495 32.744 26.915 32.716 27.321C32.618 29.813 32.009 31.605 30.889 32.697C29.783 33.775 27.991 34.314 25.513 34.314Z" fill="url(#paint0_linear_1_37)"/>
<defs>
<linearGradient id="paint0_linear_1_37" x1="-2.0365" y1="8.5878" x2="73.0208" y2="67.6528" gradientUnits="userSpaceOnUse">
<stop offset="0.0856443" stop-color="white"/>
<stop offset="1" stop-color="#B7B7B7"/>
</linearGradient>
</defs>
</svg>
