<svg width="15" height="17" viewBox="0 0 15 17" fill="none" xmlns="http://www.w3.org/2000/svg">
<path d="M3.25 0.5V3.23438H11.75V0.5H12V3.23438H14.375C14.3942 3.23438 14.4207 3.24236 14.4482 3.27246C14.4763 3.30334 14.5 3.35341 14.5 3.41797V15.7227C14.5 15.7872 14.4763 15.8373 14.4482 15.8682C14.4207 15.8983 14.3942 15.9062 14.375 15.9062H0.625C0.605786 15.9062 0.579278 15.8983 0.551758 15.8682C0.523725 15.8373 0.5 15.7872 0.5 15.7227V3.41797C0.5 3.35342 0.523721 3.30334 0.551758 3.27246C0.579282 3.24236 0.605793 3.23438 0.625 3.23438H3V0.5H3.25ZM0.75 15.5391H14.25V6.33594H0.75V15.5391Z" fill="#F0B733" stroke="#F0B733"/>
</svg>
