<svg width="16" height="16" viewBox="0 0 16 16" fill="none" xmlns="http://www.w3.org/2000/svg">
<path d="M8 0.5C12.1423 0.5 15.5 3.85774 15.5 8C15.5 12.1423 12.1423 15.5 8 15.5C3.85774 15.5 0.5 12.1423 0.5 8C0.5 3.85774 3.85774 0.5 8 0.5ZM8 1.09961C6.17001 1.09961 4.41509 1.82709 3.12109 3.12109C1.82709 4.41509 1.09961 6.17001 1.09961 8C1.09961 9.82999 1.82709 11.5849 3.12109 12.8789C4.41509 14.1729 6.17001 14.9004 8 14.9004C9.82999 14.9004 11.5849 14.1729 12.8789 12.8789C14.1729 11.5849 14.9004 9.82999 14.9004 8C14.9004 6.17001 14.1729 4.41509 12.8789 3.12109C11.5849 1.82709 9.82999 1.09961 8 1.09961ZM8 3.7002C8.07336 3.70022 8.14436 3.7267 8.19922 3.77539C8.25212 3.82243 8.28576 3.88715 8.2959 3.95703L8.2998 4.01465V7.87598L8.44629 8.02246L10.6113 10.1865V10.1875C10.6651 10.2414 10.6968 10.3136 10.6992 10.3896C10.7015 10.4658 10.6744 10.5405 10.624 10.5977C10.5737 10.6547 10.5035 10.691 10.4277 10.6982C10.3534 10.7053 10.2794 10.6833 10.2197 10.6387L10.1729 10.5977L7.78809 8.21191C7.74287 8.1666 7.71365 8.10812 7.7041 8.04492L7.7002 7.98047V4C7.7002 3.92043 7.73183 3.84435 7.78809 3.78809C7.83032 3.74585 7.88368 3.71756 7.94141 3.70605L8 3.7002Z" fill="#AB3CFF" stroke="white"/>
</svg>
