<svg width="18" height="19" viewBox="0 0 18 19" fill="none" xmlns="http://www.w3.org/2000/svg">
<path d="M2.88867 3.38892H14.2227C14.5909 3.38903 14.9437 3.53578 15.2041 3.79614C15.4644 4.05655 15.6113 4.40936 15.6113 4.77759V6.16626H1.5V4.77759L1.50684 4.64087C1.53834 4.3228 1.67924 4.02413 1.90723 3.79614C2.16764 3.53573 2.52039 3.38897 2.88867 3.38892Z" fill="#FF0000" stroke="black"/>
<path d="M12.3333 2.88889H14.2222C14.7232 2.88889 15.2036 3.0879 15.5579 3.44213C15.9121 3.79637 16.1111 4.27681 16.1111 4.77778V6.66667H1V4.77778C1 4.27681 1.19901 3.79637 1.55324 3.44213C1.90748 3.0879 2.38792 2.88889 2.88889 2.88889H4.77778M12.3333 2.88889V1M12.3333 2.88889H4.77778M4.77778 2.88889V1M1 7.13889V16.1111C1 16.6121 1.19901 17.0925 1.55324 17.4468C1.90748 17.801 2.38792 18 2.88889 18H14.2222C14.7232 18 15.2036 17.801 15.5579 17.4468C15.9121 17.0925 16.1111 16.6121 16.1111 16.1111V7.13889" stroke="white" stroke-width="2" stroke-linecap="round" stroke-linejoin="round"/>
</svg>
